<?xml version="1.0" encoding="UTF-8" standalone="no"?>
<!-- Created with Inkscape (http://www.inkscape.org/) -->

<svg
   xmlns:dc="http://purl.org/dc/elements/1.1/"
   xmlns:cc="http://creativecommons.org/ns#"
   xmlns:rdf="http://www.w3.org/1999/02/22-rdf-syntax-ns#"
   xmlns:svg="http://www.w3.org/2000/svg"
   xmlns="http://www.w3.org/2000/svg"
   xmlns:sodipodi="http://sodipodi.sourceforge.net/DTD/sodipodi-0.dtd"
   xmlns:inkscape="http://www.inkscape.org/namespaces/inkscape"
   id="svg2985"
   version="1.1"
   inkscape:version="0.48.5 r10040"
   width="1480"
   height="1280"
   sodipodi:docname="a.png">
  <metadata
     id="metadata2991">
    <rdf:RDF>
      <cc:Work
         rdf:about="">
        <dc:format>image/svg+xml</dc:format>
        <dc:type
           rdf:resource="http://purl.org/dc/dcmitype/StillImage" />
        <dc:title></dc:title>
      </cc:Work>
    </rdf:RDF>
  </metadata>
  <defs
     id="defs2989" />
  <sodipodi:namedview
     pagecolor="#ffffff"
     bordercolor="#666666"
     borderopacity="1"
     objecttolerance="10"
     gridtolerance="10"
     guidetolerance="10"
     inkscape:pageopacity="0"
     inkscape:pageshadow="2"
     inkscape:window-width="1368"
     inkscape:window-height="705"
     id="namedview2987"
     showgrid="false"
     inkscape:zoom="0.184375"
     inkscape:cx="-168.47458"
     inkscape:cy="640"
     inkscape:window-x="-8"
     inkscape:window-y="-8"
     inkscape:window-maximized="1"
     inkscape:current-layer="svg2985" />
  <path
     style="fill:#000000;fill-opacity:1;fill-rule:evenodd;stroke:#000000;stroke-width:1px;stroke-linecap:butt;stroke-linejoin:miter;stroke-opacity:1"
     d="m 596.625,141.03125 -173.5625,16.25 c 8.56018,-17.12036 -167.78506,96.92007 -189.84375,168.15625 -18.2922,59.07271 -48.8199,189.8215 -27.125,254.90625 13.47976,40.43932 16.49665,51.52922 16.84375,54.15625 40.24061,-5.57238 384.53125,-32.46875 384.53125,-32.46875 -5.65731,-52.0582 -86.92257,-131.77382 86.77383,-168.12129 202.05173,-3.50728 120.99481,158.6703 92.1838,254.9126 -72.0764,-85.85113 -145.31887,-74.52265 -309.14513,-32.54131 0,0 -103.05771,5.42267 -162.71875,48.8125 -57.19124,41.5936 -97.6112,75.93167 -92.1875,184.40625 5.4237,108.47458 69.11118,228.5037 200.6875,238.625 211.52538,16.2712 455.59375,-206.09375 455.59375,-206.09375 98.67255,77.54359 174.46455,138.45345 260.31255,200.68755 68.0019,-6.3996 80.8172,-54.2126 92.2187,-103.0626 C 1157.0632,962.31419 1061.2419,828.37191 981.69386,797.27383 1020.4221,658.64042 1109.9288,709.7622 1122.7188,428.46875 1082.9469,292.87483 1035.6241,148.97313 596.625,141.03125 z M 222.9375,634.5 c -0.15972,0.0221 -0.4124,0.0411 -0.5625,0.0625 0,0 0.77404,1.53852 0.5625,-0.0625 z m 342.25,99.5625 c 71.94934,-0.80735 105.17698,65.41677 91.09375,79.5 -59.66102,59.66102 -200.6875,81.34375 -200.6875,81.34375 -34.43189,-16.02635 -83.95158,13.17679 -92.21875,-81.34375 -6.99391,-73.50502 128.40791,-65.35395 173.5625,-75.9375 9.98849,-2.34115 19.41412,-3.46335 28.25,-3.5625 z"
     id="path2997"
     inkscape:connector-curvature="0"
     sodipodi:nodetypes="ccsscccccssscccccccccssccss" />
</svg>
