<?xml version="1.0" encoding="UTF-8" standalone="no"?>
<!-- Created with Inkscape (http://www.inkscape.org/) -->

<svg
   xmlns:dc="http://purl.org/dc/elements/1.1/"
   xmlns:cc="http://creativecommons.org/ns#"
   xmlns:rdf="http://www.w3.org/1999/02/22-rdf-syntax-ns#"
   xmlns:svg="http://www.w3.org/2000/svg"
   xmlns="http://www.w3.org/2000/svg"
   xmlns:sodipodi="http://sodipodi.sourceforge.net/DTD/sodipodi-0.dtd"
   xmlns:inkscape="http://www.inkscape.org/namespaces/inkscape"
   id="svg3769"
   version="1.1"
   inkscape:version="0.48.5 r10040"
   width="1480"
   height="1280"
   sodipodi:docname="b.png">
  <metadata
     id="metadata3775">
    <rdf:RDF>
      <cc:Work
         rdf:about="">
        <dc:format>image/svg+xml</dc:format>
        <dc:type
           rdf:resource="http://purl.org/dc/dcmitype/StillImage" />
        <dc:title></dc:title>
      </cc:Work>
    </rdf:RDF>
  </metadata>
  <defs
     id="defs3773" />
  <sodipodi:namedview
     pagecolor="#ffffff"
     bordercolor="#666666"
     borderopacity="1"
     objecttolerance="10"
     gridtolerance="10"
     guidetolerance="10"
     inkscape:pageopacity="0"
     inkscape:pageshadow="2"
     inkscape:window-width="1368"
     inkscape:window-height="705"
     id="namedview3771"
     showgrid="false"
     showguides="true"
     inkscape:guide-bbox="true"
     inkscape:zoom="0.26074563"
     inkscape:cx="22.957686"
     inkscape:cy="565.24907"
     inkscape:window-x="-8"
     inkscape:window-y="-8"
     inkscape:window-maximized="1"
     inkscape:current-layer="svg3769" />
  <path
     id="path3781"
     style="fill:#000000;stroke:#000000;stroke-width:1px;stroke-linecap:butt;stroke-linejoin:miter;stroke-opacity:1;fill-opacity:1"
     d="m 810.84745,908.47457 c 8.59444,-11.63366 -4.81789,2.97659 0.85247,-6.74193 31.43172,-53.87134 61.08268,-94.70666 132.02888,-93.59705 93.9481,-15.89606 121.5956,45.10644 138.3052,111.18644 -31.7038,38.80474 -71.7348,69.28217 -146.44079,65.08475 -38.87772,-14.49395 -72.44347,-7.73998 -124.74576,-75.93221 z M 168.13551,151.86441 c -21.6949,21.69491 200.678,1008.81359 200.678,1008.81359 10.45535,74.4662 860.99159,31.8814 829.83049,-320.00003 -4.5696,-51.60167 -149.8616,-234.26179 -423.05079,-92.20339 L 878.64411,141.01695 C 764.2802,88.255485 533.40715,66.654597 168.13551,151.86441 z" />
</svg>
