<?xml version="1.0" encoding="UTF-8" standalone="no"?>
<!-- Created with Inkscape (http://www.inkscape.org/) -->

<svg
   xmlns:dc="http://purl.org/dc/elements/1.1/"
   xmlns:cc="http://creativecommons.org/ns#"
   xmlns:rdf="http://www.w3.org/1999/02/22-rdf-syntax-ns#"
   xmlns:svg="http://www.w3.org/2000/svg"
   xmlns="http://www.w3.org/2000/svg"
   xmlns:sodipodi="http://sodipodi.sourceforge.net/DTD/sodipodi-0.dtd"
   xmlns:inkscape="http://www.inkscape.org/namespaces/inkscape"
   id="svg4292"
   version="1.1"
   inkscape:version="0.48.5 r10040"
   width="1480"
   height="1280"
   sodipodi:docname="c.png">
  <metadata
     id="metadata4298">
    <rdf:RDF>
      <cc:Work
         rdf:about="">
        <dc:format>image/svg+xml</dc:format>
        <dc:type
           rdf:resource="http://purl.org/dc/dcmitype/StillImage" />
        <dc:title></dc:title>
      </cc:Work>
    </rdf:RDF>
  </metadata>
  <defs
     id="defs4296" />
  <sodipodi:namedview
     pagecolor="#ffffff"
     bordercolor="#666666"
     borderopacity="1"
     objecttolerance="10"
     gridtolerance="10"
     guidetolerance="10"
     inkscape:pageopacity="0"
     inkscape:pageshadow="2"
     inkscape:window-width="1368"
     inkscape:window-height="705"
     id="namedview4294"
     showgrid="false"
     inkscape:zoom="0.184375"
     inkscape:cx="-168.47458"
     inkscape:cy="640"
     inkscape:window-x="-8"
     inkscape:window-y="-8"
     inkscape:window-maximized="1"
     inkscape:current-layer="svg4292" />
  <path
     style="fill:#000000;stroke:#000000;stroke-width:1px;stroke-linecap:butt;stroke-linejoin:miter;stroke-opacity:1;fill-opacity:1"
     d="m 856.94912,694.23729 c 178.98308,21.69492 363.38988,5.42373 363.38988,5.42373 C 1184.9626,572.6751 1354.5802,215.67335 726.77965,151.86441 443.91427,120.24144 188.62502,171.2027 233.22035,640 c 19.10431,437.0921 270.47209,391.1133 482.7119,428.4746 C 997.8086,1073.7037 1081.8001,953.95286 1090.1695,786.44068 1049.2376,769.11612 1022.268,745.8077 884.06785,770.1695 874.57717,836.44412 959.76042,952.54712 694.23726,884.0678 633.57503,873.74862 574.29137,856.59696 564.06781,726.77966 553.77219,587.61179 664.44149,574.20244 748.4746,558.64407 c 89.5567,50.62147 95.96176,84.97175 108.47452,135.59322 z"
     id="path4302"
     inkscape:connector-curvature="0"
     sodipodi:nodetypes="ccccccccccc" />
</svg>
