<?xml version="1.0" encoding="UTF-8" standalone="no"?>
<!-- Created with Inkscape (http://www.inkscape.org/) -->

<svg
   xmlns:dc="http://purl.org/dc/elements/1.1/"
   xmlns:cc="http://creativecommons.org/ns#"
   xmlns:rdf="http://www.w3.org/1999/02/22-rdf-syntax-ns#"
   xmlns:svg="http://www.w3.org/2000/svg"
   xmlns="http://www.w3.org/2000/svg"
   xmlns:sodipodi="http://sodipodi.sourceforge.net/DTD/sodipodi-0.dtd"
   xmlns:inkscape="http://www.inkscape.org/namespaces/inkscape"
   id="svg4812"
   version="1.1"
   inkscape:version="0.48.5 r10040"
   width="1480"
   height="1280"
   sodipodi:docname="d.png">
  <metadata
     id="metadata4818">
    <rdf:RDF>
      <cc:Work
         rdf:about="">
        <dc:format>image/svg+xml</dc:format>
        <dc:type
           rdf:resource="http://purl.org/dc/dcmitype/StillImage" />
        <dc:title></dc:title>
      </cc:Work>
    </rdf:RDF>
  </metadata>
  <defs
     id="defs4816" />
  <sodipodi:namedview
     pagecolor="#ffffff"
     bordercolor="#666666"
     borderopacity="1"
     objecttolerance="10"
     gridtolerance="10"
     guidetolerance="10"
     inkscape:pageopacity="0"
     inkscape:pageshadow="2"
     inkscape:window-width="1368"
     inkscape:window-height="705"
     id="namedview4814"
     showgrid="false"
     inkscape:zoom="0.184375"
     inkscape:cx="740"
     inkscape:cy="640"
     inkscape:window-x="-8"
     inkscape:window-y="-8"
     inkscape:window-maximized="1"
     inkscape:current-layer="svg4812" />
  <path
     id="path4824"
     style="fill:#000000;stroke:#000000;stroke-width:1px;stroke-linecap:butt;stroke-linejoin:miter;stroke-opacity:1;fill-opacity:1;fill-rule:evenodd"
     d="m 363.38983,596.61017 c 48.88218,-43.5957 100.9275,-42.44353 135.59322,-43.38983 74.80779,30.73446 111.40155,61.46893 113.89831,92.20339 C 624.5043,697.50156 505.29097,711.57035 471.8644,705.08475 429.32279,696.8306 337.16918,642.49631 363.38983,596.61017 z M 808.13559,92.203389 c 148.13222,-33.388143 174.82568,-6.056902 244.06781,0 -96.67074,300.753421 25.4087,1054.605911 92.2033,1035.932211 23.0279,-6.4379 -219.86461,73.8498 -292.88131,21.695 l 92.2034,-113.8983 c -257.61474,97.231 -741.95601,327.275 -705.0847,-227.7967 45.75074,-223.92056 -1.00006,-318.76906 244.0678,-363.38983 244.45872,90.8508 243.29938,158.50877 336.2712,244.06779 z" />
</svg>
