<?xml version="1.0" encoding="UTF-8" standalone="no"?>
<!-- Created with Inkscape (http://www.inkscape.org/) -->

<svg
   xmlns:dc="http://purl.org/dc/elements/1.1/"
   xmlns:cc="http://creativecommons.org/ns#"
   xmlns:rdf="http://www.w3.org/1999/02/22-rdf-syntax-ns#"
   xmlns:svg="http://www.w3.org/2000/svg"
   xmlns="http://www.w3.org/2000/svg"
   xmlns:sodipodi="http://sodipodi.sourceforge.net/DTD/sodipodi-0.dtd"
   xmlns:inkscape="http://www.inkscape.org/namespaces/inkscape"
   id="svg2985"
   version="1.1"
   inkscape:version="0.48.5 r10040"
   width="370"
   height="320"
   sodipodi:docname="M.png">
  <metadata
     id="metadata2991">
    <rdf:RDF>
      <cc:Work
         rdf:about="">
        <dc:format>image/svg+xml</dc:format>
        <dc:type
           rdf:resource="http://purl.org/dc/dcmitype/StillImage" />
        <dc:title></dc:title>
      </cc:Work>
    </rdf:RDF>
  </metadata>
  <defs
     id="defs2989" />
  <sodipodi:namedview
     pagecolor="#ffffff"
     bordercolor="#666666"
     borderopacity="1"
     objecttolerance="10"
     gridtolerance="10"
     guidetolerance="10"
     inkscape:pageopacity="0"
     inkscape:pageshadow="2"
     inkscape:window-width="1368"
     inkscape:window-height="705"
     id="namedview2987"
     showgrid="false"
     inkscape:zoom="0.7375"
     inkscape:cx="-42.118644"
     inkscape:cy="160"
     inkscape:window-x="-8"
     inkscape:window-y="-8"
     inkscape:window-maximized="1"
     inkscape:current-layer="svg2985" />
  <path
     style="fill:#000000;stroke:#000000;stroke-width:1px;stroke-linecap:butt;stroke-linejoin:miter;stroke-opacity:1;fill-opacity:1"
     d="m 153.22033,111.18644 12.20339,172.20339 c -40.11466,2.18418 -62.13514,8.3893 -131.525419,4.06779 0,0 -5.389597,-253.429443 3e-6,-254.915247 C 74.321245,21.398587 166.7293,19.582146 153.22033,24.406779 c 39.81484,35.62408 67.29435,73.304048 85.42373,112.542371 2.88586,-36.05357 3.70713,-39.178377 32.54238,-113.898303 20.91304,-1.987261 25.76474,-4.113894 44.74575,1.355932 12.43994,122.701351 -0.65637,175.144431 -1.35592,261.694911 l -39.32204,1.35594 -1.35593,-191.186444 c -0.57407,7.958314 -13.63164,44.004524 -28.47458,84.067794 -30.16032,-23.39533 -45.90563,-55.43967 -92.20339,-69.15254 z"
     id="path2995"
     inkscape:connector-curvature="0"
     sodipodi:nodetypes="cccsccccccccc" />
</svg>
