<?xml version="1.0" encoding="UTF-8" standalone="no"?>
<!-- Created with Inkscape (http://www.inkscape.org/) -->

<svg
   xmlns:dc="http://purl.org/dc/elements/1.1/"
   xmlns:cc="http://creativecommons.org/ns#"
   xmlns:rdf="http://www.w3.org/1999/02/22-rdf-syntax-ns#"
   xmlns:svg="http://www.w3.org/2000/svg"
   xmlns="http://www.w3.org/2000/svg"
   xmlns:sodipodi="http://sodipodi.sourceforge.net/DTD/sodipodi-0.dtd"
   xmlns:inkscape="http://www.inkscape.org/namespaces/inkscape"
   id="svg5335"
   version="1.1"
   inkscape:version="0.48.5 r10040"
   width="370"
   height="320"
   sodipodi:docname="Q.png">
  <metadata
     id="metadata5341">
    <rdf:RDF>
      <cc:Work
         rdf:about="">
        <dc:format>image/svg+xml</dc:format>
        <dc:type
           rdf:resource="http://purl.org/dc/dcmitype/StillImage" />
        <dc:title></dc:title>
      </cc:Work>
    </rdf:RDF>
  </metadata>
  <defs
     id="defs5339" />
  <sodipodi:namedview
     pagecolor="#ffffff"
     bordercolor="#666666"
     borderopacity="1"
     objecttolerance="10"
     gridtolerance="10"
     guidetolerance="10"
     inkscape:pageopacity="0"
     inkscape:pageshadow="2"
     inkscape:window-width="1368"
     inkscape:window-height="705"
     id="namedview5337"
     showgrid="false"
     inkscape:zoom="0.7375"
     inkscape:cx="-42.118644"
     inkscape:cy="160"
     inkscape:window-x="-8"
     inkscape:window-y="-8"
     inkscape:window-maximized="1"
     inkscape:current-layer="svg5335" />
  <path
     id="path5351"
     style="fill:#000000;stroke:#000000;stroke-width:1px;stroke-linecap:butt;stroke-linejoin:miter;stroke-opacity:1;fill-opacity:1;fill-rule:evenodd"
     d="m 136.94915,43.389831 c -14.91525,-4.067796 -25.7627,21.694915 -25.7627,21.694915 -6.63168,10.994988 4.27407,-13.173024 -8.1356,24.406778 -5.862931,17.754526 41.7714,26.348196 40.67797,23.050846 0.20169,-19.444346 -1.28303,-30.141567 8.13559,-25.762706 22.16598,10.3053 24.40678,8.13559 24.40678,8.13559 0,0 -0.42835,2.52326 6.77966,1.35593 13.29619,-2.1533 54.15075,-53.31492 -46.1017,-52.881353 z m 5.42374,-21.694916 C 50.677427,11.079122 42.033899,130.1695 42.033899,130.1695 46.720915,237.94499 111.29753,249.19361 158.64407,261.69492 l 27.11864,-5.42373 c 0,0 20.4931,26.84398 43.38983,29.83051 31.18644,4.0678 35.25424,-13.55932 35.25424,-13.55932 L 234.57627,248.1356 c 14.35177,-26.66072 34.09695,-31.74781 42.0339,-84.0678 C 284.67933,22.461826 215.91411,17.821506 142.37289,21.694915 z" />
</svg>
