<?xml version="1.0" encoding="UTF-8" standalone="no"?>
<!-- Created with Inkscape (http://www.inkscape.org/) -->

<svg
   xmlns:dc="http://purl.org/dc/elements/1.1/"
   xmlns:cc="http://creativecommons.org/ns#"
   xmlns:rdf="http://www.w3.org/1999/02/22-rdf-syntax-ns#"
   xmlns:svg="http://www.w3.org/2000/svg"
   xmlns="http://www.w3.org/2000/svg"
   xmlns:sodipodi="http://sodipodi.sourceforge.net/DTD/sodipodi-0.dtd"
   xmlns:inkscape="http://www.inkscape.org/namespaces/inkscape"
   id="svg8473"
   version="1.1"
   inkscape:version="0.48.5 r10040"
   width="370"
   height="320"
   sodipodi:docname="W.png">
  <metadata
     id="metadata8479">
    <rdf:RDF>
      <cc:Work
         rdf:about="">
        <dc:format>image/svg+xml</dc:format>
        <dc:type
           rdf:resource="http://purl.org/dc/dcmitype/StillImage" />
        <dc:title></dc:title>
      </cc:Work>
    </rdf:RDF>
  </metadata>
  <defs
     id="defs8477" />
  <sodipodi:namedview
     pagecolor="#ffffff"
     bordercolor="#666666"
     borderopacity="1"
     objecttolerance="10"
     gridtolerance="10"
     guidetolerance="10"
     inkscape:pageopacity="0"
     inkscape:pageshadow="2"
     inkscape:window-width="1368"
     inkscape:window-height="705"
     id="namedview8475"
     showgrid="false"
     inkscape:zoom="0.7375"
     inkscape:cx="-42.118644"
     inkscape:cy="160"
     inkscape:window-x="-8"
     inkscape:window-y="-8"
     inkscape:window-maximized="1"
     inkscape:current-layer="svg8473" />
  <path
     style="fill:#000000;stroke:#000000;stroke-width:1px;stroke-linecap:butt;stroke-linejoin:miter;stroke-opacity:1;fill-opacity:1"
     d="m 17.627117,65.084746 c 48.16462,-18.311295 92.241603,-3.921439 136.949163,5.423729 l 46.10169,141.016945 -4.0678,-149.152538 c 27.11879,-8.135733 38.29457,-0.328466 51.52543,5.423729 l 37.9661,130.169489 0,-126.101693 c 25.12033,-13.059273 44.52649,2.452309 66.44068,5.423729 -13.30949,85.067134 -35.48087,105.758924 -55.59322,192.542364 0,0 -39.32204,14.23729 -40.67797,4.0678 -1.35593,-10.16948 -20.33898,-71.86441 -20.33898,-71.86441 l -6.77966,66.44068 c -7.69009,7.69009 -112.43076,8.02397 -123.38984,5.42373 C 92.569667,270.76801 17.627117,65.084746 17.627117,65.084746 z"
     id="path8483"
     inkscape:connector-curvature="0"
     sodipodi:nodetypes="cccccccccsccsc" />
</svg>
